<svg width="16" height="20" viewBox="0 0 16 20" fill="none" xmlns="http://www.w3.org/2000/svg">
<path d="M8 12.8599C8.4667 12.8599 8.83515 12.4818 8.83515 12.0381V3.8776L8.76965 2.66133L9.24454 3.27768L10.3171 4.4282C10.4645 4.59256 10.6692 4.67474 10.8739 4.67474C11.2751 4.67474 11.6108 4.37889 11.6108 3.95978C11.6108 3.74611 11.5289 3.58175 11.3815 3.43382L8.64683 0.795848C8.42576 0.58218 8.22107 0.5 8 0.5C7.77893 0.5 7.56605 0.58218 7.35317 0.795848L4.61845 3.43382C4.46288 3.58175 4.381 3.74611 4.381 3.95978C4.381 4.37889 4.7167 4.67474 5.1179 4.67474C5.3226 4.67474 5.53548 4.59256 5.67467 4.4282L6.75546 3.27768L7.23035 2.66133L7.15666 3.8776V12.0381C7.15666 12.4818 7.5333 12.8599 8 12.8599ZM3.27566 19.5H12.7243C14.542 19.5 15.5 18.5385 15.5 16.7388V8.73443C15.5 6.93469 14.542 5.97318 12.7243 5.97318H10.5546V7.8058H12.5688C13.2811 7.8058 13.6741 8.17561 13.6741 8.92344V16.5497C13.6741 17.3058 13.2811 17.6674 12.5688 17.6674H3.43122C2.7107 17.6674 2.32587 17.3058 2.32587 16.5497V8.92344C2.32587 8.17561 2.7107 7.8058 3.43122 7.8058H5.46998V5.97318H3.27566C1.46616 5.97318 0.5 6.93469 0.5 8.73443V16.7388C0.5 18.5467 1.46616 19.5 3.27566 19.5Z" fill="black"/>
</svg>
